<?xml version="1.0" encoding="UTF-8" standalone="no"?>
<!DOCTYPE svg  PUBLIC '-//W3C//DTD SVG 1.1//EN'  'http://www.w3.org/Graphics/SVG/1.1/DTD/svg11.dtd'>
<!-- Animated using aniGen version 0.8.1 Quality of Life - http://anigen.org -->
<svg id="svg" xmlns:rdf="http://www.w3.org/1999/02/22-rdf-syntax-ns#" style="" xmlns="http://www.w3.org/2000/svg" anigen:version="0.8.1" xmlns:osb="http://www.openswatchbook.org/uri/2009/osb" xmlns:anigen="http://www.anigen.org/namespace" height="1080" viewBox="0 0 1920 1080" width="1920" version="1.1" preserveAspectRatio="xMidYMid" xmlns:cc="http://creativecommons.org/ns#" xmlns:xlink="http://www.w3.org/1999/xlink" xmlns:dc="http://purl.org/dc/elements/1.1/">
 <metadata id="metadata4179">
  <rdf:rdf id="rdf:rdf7940">
   <cc:work id="cc:work8643" rdf:about="">
    <dc:format id="dc:format3974">image/svg+xml</dc:format>
    <dc:type id="dc:type5905" rdf:resource="http://purl.org/dc/dcmitype/StillImage"/>
    <dc:title id="dc:title2623"/>
   </cc:work>
  </rdf:rdf>
 </metadata>
 <defs id="defs4177">
  <linearGradient id="linearGradient7401">
   <stop id="stop7403" stop-color="#fff" stop-opacity=".58824" offset="0"/>
   <stop id="stop7405" stop-color="#ececec" stop-opacity=".58824" offset="1"/>
  </linearGradient>
  <radialGradient id="radialGradient7391" xlink:href="#linearGradient7401" gradientUnits="userSpaceOnUse" cy="303.37" cx="875.45" gradientTransform="matrix(1 0 0 .52702 0 143.49)" r="179.8"/>
  <radialGradient id="radialGradient7399" xlink:href="#linearGradient7401" gradientUnits="userSpaceOnUse" cy="467.04" cx="1305.2" gradientTransform="matrix(1 0 0 .50176 0 232.7)" r="166.79"/>
  <radialGradient id="radialGradient7415" xlink:href="#linearGradient7401" gradientUnits="userSpaceOnUse" cy="473.6" cx="450.62" gradientTransform="matrix(1 0 0 .52096 0 226.88)" r="167.3"/>
 </defs>
 <g id="layer17">
  <path id="rect5622" stroke-width="0" d="m0.0013442 0.02716h1920v1080.3h-1920z" width="1919.9973" height="1080.2738" class="YgNPKkQA_0" fill="#00a9ef">
   <animate id="animate4001" begin="0s" additive="replace" calcMode="spline" keySplines="0 0 1 1;0 0 1 1;0 0 1 1;0 0 1 1;0 0 1 1;0 0 1 1;0 0 1 1;0 0 1 1" repeatCount="indefinite" attributeName="fill" values="#5bc2f4;#00a9ef;#004c9b;#002d72;#000000;#002d72;#004c9b;rgb(0, 169, 239);#5bc2f4" attributeType="auto" accumulate="none" dur="10s" fill="freeze" keyTimes="0;0.1;0.2;0.3;0.4;0.7;0.8;0.9;1"/>
  </path>
  <path id="path5698" d="m1299.7 383.85c41.5 0.71 59 34.3 59 34.3s5.5-2.66 9.3-3.36c5.1-0.91 14.2-0.22 19.2 0.53 9.3 1.41 19.6 9.19 23.5 22.63 62.2 2.12 60.8 58.33 60.8 58.33-7.1 49.57-50.9 53.74-50.9 53.74-38 2.05-45.5-11.51-46-11.31-27.6 9.19-44.2-6.01-44.2-6.01-31.5 15.81-63.7 0.41-63.6 0-23.5 20.06-43.2 5.26-45.3 6.01-67.8 34.59-86.3-44.6-82-42.78 4.3-55.35 55.1-50.09 55.2-51.27 13.6-38.61 51-29.3 47.7-29.69 22.4-29.03 40.9-29.16 57.3-31.12z" fill-rule="evenodd" stroke="#fff" transform="translate(2 132)" stroke-width="1px" class="YgNPKkQA_2" fill="url(#radialGradient7399)">
   <animateTransform id="animateTransform1142" begin="0s" additive="sum" calcMode="spline" keySplines="0 0 1 1;0 0 1 1;0 0 1 1" repeatCount="indefinite" attributeName="transform" values="0 0;-1500.1138905805535 0;951.886112426479 0;0 0" attributeType="auto" accumulate="none" dur="10s" fill="freeze" type="translate" keyTimes="0;0.5;0.5;1"/>
  </path>
  <path id="path7381" d="m922.77 240.31c29.56-5.52 31.5 3.28 37.83 2.83 62.9-30.38 79.2 35.16 77.8 33.94 3.5 24.22-10.4 39.87-11 40.66 40.3 15.78 24.1 56.84 24.2 53.39-20.8 36.19-53.03 28.79-72.96 15.91-35.84 21.4-62.23-8.49-62.23-8.49-52.03 31.29-84.87-15.6-82.91-16.26-30.59 27.49-54.92 12.39-56.04 13.08-42.61 25.27-69.91-9.11-70-9.19-29-43.15 6.43-69.71 10.14-72.11 14.48-12.29 36.96-9.22 39-8.86-12.23-39.84 17.17-55.92 25.46-59.48 21.46-8.51 33.54 2.19 34.65 1.85 10.06-9.18 20.2-15.16 47.29-18.47 54.97 2.28 58.01 32.99 58.77 31.2z" fill-rule="evenodd" stroke="#fff" transform="" stroke-width="1px" class="YgNPKkQA_3" fill="url(#radialGradient7391)">
   <animateTransform id="animateTransform514" begin="0s" additive="sum" calcMode="spline" keySplines="0 0 1 1;0 0 1 1;0 0 1 1" repeatCount="indefinite" attributeName="transform" values="0 0;-1031.151065620826 0;1280.8489382587832 0;0 0" attributeType="auto" accumulate="none" dur="10s" fill="freeze" type="translate" keyTimes="0;0.5;0.5;1"/>
  </path>
  <path id="path7407" d="m419.25 387c33.05 0.7 38.65 21.31 42.25 21 12.9-13.62 29.04-12.43 32.21-12.45 34.45 0.96 41.68 34.22 44.04 34.2 9.34-0.83 8.5 7.75 8.5 7.75 7.91-3.86 12.9-4.82 17.6-5.18 46 2.25 52.65 43.93 52.65 43.93 3.35 38.54-2.73 33.68-14 47.37-31.82 27.47-55.45 10.83-59.5 9.88-18.62 26.38-58.88 26.75-58.88 26.75-35 0.63-56.12-23.25-56.12-23.25-41.62 13.86-63.5-16.25-63.5-16.25-61.72 19.14-79.75-39.25-79.75-39.25-8-64.5 37.75-73.75 37.75-73.75 31.25-9.75 48.75 5.75 48.75 5.75 11.75-29 48-26.5 48-26.5z" fill-rule="evenodd" stroke="#fff" transform="" stroke-width="1px" class="YgNPKkQA_4" fill="url(#radialGradient7415)">
   <animateTransform id="animateTransform2462" begin="0s" additive="sum" calcMode="spline" keySplines="0 0 1 1;0 0 1 1;0 0 1 1" repeatCount="indefinite" attributeName="transform" values="0 0;-728 0;1775 0;0 0" attributeType="auto" accumulate="none" dur="10s" fill="freeze" type="translate" keyTimes="0;0.5;0.5;1"/>
  </path>
 </g>
 <g id="layer18" style="" fill-opacity=".58824" stroke="#fd0" stroke-width="4.5" fill="#ff0">
  <path id="path7424" class="YgNPKkQA_5" d="m214.96 104.19-15.465-5.5854-4.3312 15.862 0.533-16.434-16.424 0.78244 15.795-4.5715-5.8195-15.379 9.2286 13.609 12.828-10.287-10.091 12.982z">
   <animate id="animate9308" begin="0s" additive="replace" calcMode="spline" keySplines=".25 0 .75 .75;.25 .25 .75 1" repeatCount="indefinite" attributeName="opacity" values="0;1;0" attributeType="auto" accumulate="none" dur="10s" fill="freeze" keyTimes="0;0.5;1"/>
  </path>
  <path id="path7424-7" class="YgNPKkQA_6" d="m106.63 377.92-15.465-5.5854-4.3312 15.862 0.533-16.434-16.424 0.78244 15.795-4.5715-5.8195-15.379 9.2286 13.609 12.828-10.287-10.091 12.982z">
   <animate id="animate3127" begin="0s" additive="replace" calcMode="spline" keySplines=".25 0 .75 .75;.25 .25 .75 1" repeatCount="indefinite" attributeName="opacity" values="0;1;0" attributeType="auto" accumulate="none" dur="10s" fill="freeze" keyTimes="0;0.5;1"/>
  </path>
  <path id="path7424-3" class="YgNPKkQA_7" d="m437.28 288.43-15.465-5.5854-4.3312 15.862 0.53299-16.434-16.424 0.78244 15.795-4.5715-5.8195-15.379 9.2286 13.609 12.828-10.287-10.091 12.982z">
   <animate id="animate3930" begin="0s" additive="replace" calcMode="spline" keySplines=".25 0 .75 .75;.25 .25 .75 1" repeatCount="indefinite" attributeName="opacity" values="0;1;0" attributeType="auto" accumulate="none" dur="10s" fill="freeze" keyTimes="0;0.5;1"/>
  </path>
  <path id="path7424-7-9" class="YgNPKkQA_8" d="m225.71 627.22-15.465-5.5854-4.3312 15.862 0.533-16.434-16.424 0.78243 15.795-4.5715-5.8195-15.379 9.2286 13.609 12.828-10.287-10.091 12.982z">
   <animate id="animate2532" begin="0s" additive="replace" calcMode="spline" keySplines=".25 0 .75 .75;.25 .25 .75 1" repeatCount="indefinite" attributeName="opacity" values="0;1;0" attributeType="auto" accumulate="none" dur="10s" fill="freeze" keyTimes="0;0.5;1"/>
  </path>
  <path id="path7424-79" class="YgNPKkQA_9" d="m717.29 108.83-15.465-5.5854-4.3312 15.862 0.533-16.434-16.424 0.78244 15.795-4.5715-5.8195-15.379 9.2286 13.609 12.828-10.287-10.091 12.982z">
   <animate id="animate3373" begin="0s" additive="replace" calcMode="spline" keySplines=".25 0 .75 .75;.25 .25 .75 1" repeatCount="indefinite" attributeName="opacity" values="0;1;0" attributeType="auto" accumulate="none" dur="10s" fill="freeze" keyTimes="0;0.5;1"/>
  </path>
  <path id="path7424-7-7" class="YgNPKkQA_10" d="m675.43 454.69-15.465-5.5854-4.3312 15.862 0.533-16.434-16.424 0.78244 15.795-4.5715-5.8195-15.379 9.2286 13.609 12.828-10.287-10.091 12.982z">
   <animate id="animate7793" begin="0s" additive="replace" calcMode="spline" keySplines=".25 0 .75 .75;.25 .25 .75 1" repeatCount="indefinite" attributeName="opacity" values="0;1;0" attributeType="auto" accumulate="none" dur="10s" fill="freeze" keyTimes="0;0.5;1"/>
  </path>
  <path id="path7424-2" class="YgNPKkQA_11" d="m1008.6 151.26-15.465-5.5854-4.3312 15.862 0.533-16.434-16.424 0.78244 15.795-4.5715-5.8195-15.379 9.2286 13.609 12.828-10.287-10.091 12.982z">
   <animate id="animate7645" begin="0s" additive="replace" calcMode="spline" keySplines=".25 0 .75 .75;.25 .25 .75 1" repeatCount="indefinite" attributeName="opacity" values="0;1;0" attributeType="auto" accumulate="none" dur="10s" fill="freeze" keyTimes="0;0.5;1"/>
  </path>
  <path id="path7424-7-72" class="YgNPKkQA_12" d="m908.78 365.59-15.465-5.5854-4.3312 15.862 0.533-16.434-16.424 0.78244 15.795-4.5715-5.8195-15.379 9.2286 13.609 12.828-10.287-10.091 12.982z">
   <animate id="animate2805" begin="0s" additive="replace" calcMode="spline" keySplines=".25 0 .75 .75;.25 .25 .75 1" repeatCount="indefinite" attributeName="opacity" values="0;1;0" attributeType="auto" accumulate="none" dur="10s" fill="freeze" keyTimes="0;0.5;1"/>
  </path>
  <path id="path7424-7-9-5" class="YgNPKkQA_13" d="m601.61 717.34-15.465-5.5854-4.3312 15.862 0.53299-16.434-16.424 0.78244 15.795-4.5715-5.8195-15.379 9.2286 13.609 12.828-10.287-10.091 12.982z">
   <animate id="animate9862" begin="0s" additive="replace" calcMode="spline" keySplines=".25 0 .75 .75;.25 .25 .75 1" repeatCount="indefinite" attributeName="opacity" values="0;1;0" attributeType="auto" accumulate="none" dur="10s" fill="freeze" keyTimes="0;0.5;1"/>
  </path>
  <path id="path7424-7-7-5" class="YgNPKkQA_14" d="m982.03 690.47-15.465-5.5854-4.3312 15.862 0.533-16.434-16.424 0.78244 15.795-4.5715-5.8195-15.379 9.2286 13.609 12.828-10.287-10.091 12.982z">
   <animate id="animate4863" begin="0s" additive="replace" calcMode="spline" keySplines=".25 0 .75 .75;.25 .25 .75 1" repeatCount="indefinite" attributeName="opacity" values="0;1;0" attributeType="auto" accumulate="none" dur="10s" fill="freeze" keyTimes="0;0.5;1"/>
  </path>
  <path id="path7424-7-72-8" class="YgNPKkQA_15" d="m1187.1 537.73-15.465-5.5854-4.3312 15.862 0.533-16.434-16.424 0.78244 15.795-4.5715-5.8195-15.379 9.2285 13.609 12.828-10.287-10.091 12.982z">
   <animate id="animate2801" begin="0s" additive="replace" calcMode="spline" keySplines=".25 0 .75 .75;.25 .25 .75 1" repeatCount="indefinite" attributeName="opacity" values="0;1;0" attributeType="auto" accumulate="none" dur="10s" fill="freeze" keyTimes="0;0.5;1"/>
  </path>
  <path id="path7424-7-9-6" class="YgNPKkQA_16" d="m1221 318.53-15.465-5.5854-4.3312 15.862 0.533-16.434-16.424 0.78244 15.794-4.5715-5.8195-15.379 9.2286 13.609 12.828-10.287-10.091 12.982z">
   <animate id="animate9124" begin="0s" additive="replace" calcMode="spline" keySplines=".25 0 .75 .75;.25 .25 .75 1" repeatCount="indefinite" attributeName="opacity" values="0;1;0" attributeType="auto" accumulate="none" dur="10s" fill="freeze" keyTimes="0;0.5;1"/>
  </path>
  <path id="path7424-7-7-7" class="YgNPKkQA_17" d="m1595.8 293.07-15.465-5.5854-4.3312 15.862 0.533-16.434-16.424 0.78244 15.794-4.5715-5.8195-15.379 9.2286 13.609 12.828-10.287-10.091 12.982z">
   <animate id="animate2582" begin="0s" additive="replace" calcMode="spline" keySplines=".25 0 .75 .75;.25 .25 .75 1" repeatCount="indefinite" attributeName="opacity" values="0;1;0" attributeType="auto" accumulate="none" dur="10s" fill="freeze" keyTimes="0;0.5;1"/>
  </path>
  <path id="path7424-7-72-5" class="YgNPKkQA_18" d="m1800.9 140.34-15.465-5.5854-4.3312 15.862 0.533-16.434-16.424 0.78243 15.794-4.5715-5.8195-15.379 9.2286 13.609 12.828-10.287-10.091 12.982z">
   <animate id="animate3752" begin="0s" additive="replace" calcMode="spline" keySplines=".25 0 .75 .75;.25 .25 .75 1" repeatCount="indefinite" attributeName="opacity" values="0;1;0" attributeType="auto" accumulate="none" dur="10s" fill="freeze" keyTimes="0;0.5;1"/>
  </path>
  <path id="path7424-7-7-7-4" class="YgNPKkQA_19" d="m1451.6 561.77-15.465-5.5854-4.3312 15.862 0.533-16.434-16.424 0.78244 15.794-4.5715-5.8195-15.379 9.2286 13.609 12.828-10.287-10.091 12.982z">
   <animate id="animate7991" begin="0s" additive="replace" calcMode="spline" keySplines=".25 0 .75 .75;.25 .25 .75 1" repeatCount="indefinite" attributeName="opacity" values="0;1;0" attributeType="auto" accumulate="none" dur="10s" fill="freeze" keyTimes="0;0.5;1"/>
  </path>
  <path id="path7424-7-7-7-3" class="YgNPKkQA_20" d="m1383.7 759.76-15.465-5.5854-4.3312 15.862 0.533-16.434-16.424 0.78244 15.794-4.5715-5.8195-15.379 9.2286 13.609 12.828-10.287-10.091 12.982z">
   <animate id="animate9179" begin="0s" additive="replace" calcMode="spline" keySplines=".25 0 .75 .75;.25 .25 .75 1" repeatCount="indefinite" attributeName="opacity" values="0;1;0" attributeType="auto" accumulate="none" dur="10s" fill="freeze" keyTimes="0;0.5;1"/>
  </path>
  <path id="path7424-7-7-7-9" class="YgNPKkQA_21" d="m1803.7 704.61-15.465-5.5854-4.3312 15.862 0.533-16.434-16.424 0.78244 15.794-4.5715-5.8195-15.379 9.2286 13.609 12.828-10.287-10.091 12.982z">
   <animate id="animate9957" begin="0s" additive="replace" calcMode="spline" keySplines=".25 0 .75 .75;.25 .25 .75 1" repeatCount="indefinite" attributeName="opacity" values="0;1;0" attributeType="auto" accumulate="none" dur="10s" fill="freeze" keyTimes="0;0.5;1"/>
  </path>
  <path id="path7424-7-7-7-48" class="YgNPKkQA_22" d="m1890 437.32-15.465-5.5854-4.3312 15.862 0.533-16.434-16.424 0.78244 15.794-4.5715-5.8195-15.379 9.2286 13.609 12.828-10.287-10.091 12.982z">
   <animate id="animate7352" begin="0s" additive="replace" calcMode="spline" keySplines=".25 0 .75 .75;.25 .25 .75 1" repeatCount="indefinite" attributeName="opacity" values="0;1;0" attributeType="auto" accumulate="none" dur="10s" fill="freeze" keyTimes="0;0.5;1"/>
  </path>
  <path id="path7424-7-7-7-46" class="YgNPKkQA_23" d="m1414.8 95.081-15.465-5.5854-4.3312 15.862 0.533-16.434-16.424 0.78244 15.795-4.5715-5.8195-15.379 9.2286 13.609 12.828-10.287-10.091 12.982z">
   <animate id="animate388" begin="0s" additive="replace" calcMode="spline" keySplines=".25 0 .75 .75;.25 .25 .75 1" repeatCount="indefinite" attributeName="opacity" values="0;1;0" attributeType="auto" accumulate="none" dur="10s" fill="freeze" keyTimes="0;0.5;1"/>
  </path>
 </g>
 <g id="layer2" transform="translate(0,855)">
  <path id="path4753" d="m2.4117 13.455v209.72h1917.6z" fill-rule="evenodd" stroke="#002d72" stroke-width="4.7982px" class="YgNPKkQA_24" fill="#002d72"/>
 </g>
 <g id="layer4" fill-rule="evenodd" transform="translate(0,855)" stroke="#002d72" stroke-width="4.7976px" fill="#004c9b">
  <path id="path4756" d="m2.3369 11.367v-149.69h74.634v157.75z" class="YgNPKkQA_25"/>
  <path id="path4758" d="m152.8-112.56v140.15l82.479 8.481v-148.21z" class="YgNPKkQA_26"/>
  <path id="path4762" d="m558.19-5.4893v77.39l74.209 7.845v-85.235z" class="YgNPKkQA_27"/>
  <path id="path4764" d="m939.7 5.1716h56.672v114.24l-56.372-5.6971z" class="YgNPKkQA_28"/>
  <path id="path4766" d="m1021.6 48.95h91.755v83.958l-89.956-10.495v-72.864z" stroke-opacity=".94510" class="YgNPKkQA_29"/>
  <path id="path4770" d="m1373.9 59.445h47.976v105.85l-49.476-5.0975v-100.45z" class="YgNPKkQA_30"/>
  <path id="path4774" d="m1848.2 95.727h44.678v121.74l-45.278-5.0975z" class="YgNPKkQA_31"/>
  <path id="path4812" d="m1296.5 126.6h68.273v33.076l-68.273-7.2089z" class="YgNPKkQA_32"/>
  <path id="path4817" d="m1563.2 132.12h-71.241v40.921l70.605 7.845z" class="YgNPKkQA_33"/>
 </g>
 <g id="layer5" fill-rule="evenodd" transform="translate(0,855)" stroke-width="4.7976px" fill="#004c9b">
  <path id="path4777" d="m36.183-60.687h86.507v85.235l-87.567-9.9653v-75.482z" stroke="#002d72" class="YgNPKkQA_34"/>
  <path id="path4779" d="m217.47-84.575h285.05v150.02l-285.46-31.185v-119.04z" stroke="#002d72" class="YgNPKkQA_35"/>
  <path id="path4781" d="m569.38 72.338v-46.177h-59.97v40.48z" stroke="#002d72" class="YgNPKkQA_36"/>
  <path id="path4783" d="m579.28 74.137v-106.75h259.67v135.23z" stroke="#002d72" class="YgNPKkQA_37"/>
  <path id="path4785" d="m1037.1 124.51v-64.468h-65.368v57.571z" stroke-opacity=".98039" stroke="#002e74" class="YgNPKkQA_38"/>
  <path id="path4789" d="m1346.9 84.332h39.58v77.362l-39.28-3.5982z" stroke="#002d72" class="YgNPKkQA_39"/>
  <path id="path4768" d="m1264.7 82.233h53.973l0.5996 73.164-54.873-6.5968v-66.567z" stroke="#002d72" class="YgNPKkQA_40"/>
  <path id="path4772" d="m1458.1 92.728h45.278v83.059l-45.877-6.5968z" stroke="#002d72" class="YgNPKkQA_41"/>
  <path id="path4836" d="m1756.3 162.59h114.09v52.624l-114.39-12.594z" stroke="#002d72" class="YgNPKkQA_42"/>
 </g>
 <g id="layer6" fill-rule="evenodd" transform="translate(0,855)" stroke="#002d72" stroke-width="4.7976px" fill="#004c9b">
  <path id="path4760" d="m378.18 51.97v-186.58h99.017v197.61z" class="YgNPKkQA_43"/>
  <path id="path4803" d="m110.82-78.215h73.785v109.41l-73.785-8.9052z" class="YgNPKkQA_44"/>
  <path id="path4787" d="m1290.8 152.4v-55.173h-81.56v46.177z" class="YgNPKkQA_45"/>
  <path id="path4791" d="m1403.9 108.62h73.164v63.868l-73.164-8.6957z" class="YgNPKkQA_46"/>
  <path id="path4828" d="m643.14 81.034v-59.371h229.69v84.858z" class="YgNPKkQA_47"/>
  <path id="path4839" d="m1821.4 124.21h40.18v88.906l-39.581-4.4978z" class="YgNPKkQA_48"/>
  <path id="path4841" d="m1886.1 176.09h31.784v44.228l-31.784-3.4483z" class="YgNPKkQA_49"/>
 </g>
 <g id="layer7" fill-rule="evenodd" transform="translate(0,855)" stroke="#002d72" stroke-width="4.7976px" fill="#004c9b">
  <path id="path4806" d="m74.348-38.353h73.785v66.152l-73.361-8.057z" class="YgNPKkQA_50"/>
  <path id="path4834" d="m728.9 37.706h223.09v77.212l-223.99-24.588z" class="YgNPKkQA_51"/>
 </g>
 <g id="layer8" transform="translate(0,855)">
  <path id="path4830" d="m683.02 85.532v-94.453h107.05v106.45z" fill-rule="evenodd" stroke="#002d72" stroke-width="4.7976px" class="YgNPKkQA_52" fill="#004c9b"/>
 </g>
 <g id="layer9" transform="translate(0,855)">
  <path id="path4844" d="m430.77-43.866 29.896-10.177h81.63v93.08l-27.139 11.237 54.915 22.687-139.51-15.69z" fill-rule="evenodd" stroke="#002d72" stroke-width="4.7976px" class="YgNPKkQA_53" fill="#004c9b"/>
 </g>
 <g id="layer10" transform="translate(0,855)">
  <path id="path4859" d="m1179.5 76.035s0.023-16.822-25.1-16.822c-24.383 0-24.409 15.974-24.409 15.974v-62.654l-53.219-13.994v130.18l160.04 17.378v-135.83l-57.311 13.793z" fill-rule="evenodd" stroke="#002d72" stroke-width="4.7976px" class="YgNPKkQA_54" fill="#004c9b"/>
 </g>
 <g id="layer11" transform="translate(0,855)">
  <path id="path4862" d="m1792.8 156.5s-4.2405-62.336-122.76-62.336c-112.37 0-107.5 61.488-107.5 61.488v25.019l230.26 25.443z" fill-rule="evenodd" stroke="#002d72" stroke-width="4.7976px" class="YgNPKkQA_55" fill="#004c9b"/>
 </g>
 <g id="layer12" transform="translate(0,855)">
  <path id="path4867" d="m1650.3 190.48-17.391-487.41c46.477-11.694 49.476-64.468 49.476-64.468h-11.095v-5.997h19.79v-17.758l-29.985-0.10599v-7.177l19.94-0.10598v-11.296l-20.84 0.0747-0.1496-5.9961 5.3974-0.0377v-10.373h-2.6989v-12.294h-42.279v-172.43h7.3599s1.3561-15.402-2.3175-15.402c-3.1419 0-5.1035 0.54125-5.1035-2.832 0-16.844 0.766-35.999-0.2122-39.649-0.7701-2.8742-5.3005-10.813-5.3005-10.813s0.2122-35.196-0.2122-45.374c-0.4241-10.177 0.2122-16.962-3.4282-16.962-3.6404 0.00013-3.0044 6.785-3.4283 16.962-0.4243 10.177-0.2121 45.374-0.2121 45.374s-4.5307 7.9392-5.3007 10.813c-0.978 3.6498-0.212 22.805-0.212 39.649 0 3.3732-1.9616 2.832-5.1035 2.832-3.6735 0-2.3174 15.402-2.3174 15.402h7.3598v172.43h-42.279v12.294h-2.6987v10.373l5.3975 0.0377-0.15 5.9961-20.84-0.0747v11.296l19.94 0.10598v7.177l-29.985 0.10598v17.758h19.79v5.997h-11.094s2.9985 52.774 49.476 64.468l-17.391 477.87z" fill-rule="evenodd" stroke="#002d72" stroke-width="4.7976px" class="YgNPKkQA_56" fill="#004c9b"/>
 </g>
 <g id="layer13" transform="translate(0,855)">
  <path id="path4914" d="m1920.3 163.71-1920-213.09" stroke="#000" stroke-width="4.8008px" class="YgNPKkQA_57" fill="none"/>
 </g>
 <g id="layer14">
  <path id="path4917" d="m0.125 12.125 1919.9 207.3" transform="translate(0,855)" class="YgNPKkQA_58" stroke="#00a9ef" stroke-width="4.5" fill="none"/>
 </g>
 <g id="layer15">
  <g id="g4314" transform="translate(955.96 633.54)">
   <path id="path3397" d="m867.14 384.08c-4.77-0.62-7.16 5.3-7.16 5.3s-9.38-1.64-12.03 0.05c-4.25 2.73-15.92 17.64-16.41 18.89-4.45 11.53 7.88 13.73 7.88 13.73l52.44 5.81 52.32 6.84s12.5 0.79 10.92-11.46c-0.18-1.34-7.97-18.59-11.45-22.25-2.17-2.28-11.68-2.91-11.68-2.91s-0.91-6.32-5.69-6.85z" fill-rule="evenodd" stroke="#000" stroke-width="1px" class="YgNPKkQA_59" fill="#0077c8"/>
   <path id="path3431" d="m881.67 427.96c-0.51 3.08-1.7 4.61-13.78 3.58-7.88-0.81-12.64-2.55-12.29-6.19 0.75-5.45 2.65-4.77 13.21-3.98 14.25 1.32 13.25 3.76 12.86 6.59z" fill-rule="evenodd" stroke="#000" stroke-width="1px" class="YgNPKkQA_60" fill="#0077c8"/>
   <path id="path3431-0" d="m927.58 433.49c-0.51 3.07-1.7 4.6-13.79 3.58-7.87-0.81-12.63-2.56-12.28-6.19 0.74-5.45 2.64-4.78 13.21-3.98 14.24 1.32 13.25 3.76 12.86 6.59z" fill-rule="evenodd" stroke="#000" stroke-width="1px" class="YgNPKkQA_61" fill="#0077c8"/>
   <path id="path3450" d="m864.66 395.08l-0.35 8.79s-0.18 4.38-5.93 3.72l-13.74-0.71s-7.6-0.97-4.86-5.44c2.74-4.46 6.36-7.78 6.36-7.78 2.01-1.99 3.17-3.12 6.81-2.8 12.02 0.55 11.71 4.22 11.71 4.22z" stroke="#000" stroke-width="1px" class="YgNPKkQA_62" fill="none"/>
   <path id="path3450-0" d="m925.62 402.19l-1.75 8.63s-0.87 4.29 4.87 5.01l13.52 2.58s7.61 0.86 6.01-4.12c-1.6-4.99-4.33-9.07-4.33-9.07-1.48-2.42-2.33-3.79-5.94-4.34-11.81-2.32-12.38 1.31-12.38 1.31z" stroke="#000" stroke-width="1px" class="YgNPKkQA_63" fill="none"/>
   <path id="path3467" d="m883.84 398.69l-0.37 5.43c-0.35 6.29-8.66 5.41-8.66 5.41-8.22-0.34-7.56-6.91-7.56-6.91l0.34-4.59c0.17-0.94-0.16-5.34 8.86-4.72 7.61 0.6 7.39 5.38 7.39 5.38z" stroke="#000" stroke-width="1px" class="YgNPKkQA_64" fill="none"/>
   <path id="path3467-4" d="m902.43 401.4l-0.38 5.44c-0.34 6.28-8.65 5.4-8.65 5.4-8.22-0.34-7.57-6.9-7.57-6.9l0.35-4.6c0.16-0.94-0.17-5.34 8.86-4.72 7.61 0.6 7.39 5.38 7.39 5.38z" stroke="#000" stroke-width="1px" class="YgNPKkQA_65" fill="none"/>
   <path id="path3467-49" d="m921.68 403.65l-0.38 5.44c-0.34 6.28-8.65 5.4-8.65 5.4-8.22-0.34-7.57-6.9-7.57-6.9l0.35-4.6c0.16-0.94-0.17-5.34 8.86-4.72 7.61 0.6 7.39 5.38 7.39 5.38z" stroke="#000" stroke-width="1px" class="YgNPKkQA_66" fill="none"/>
   <path id="path3492" d="m850.95 406.67c-5.27-0.29-6.66-0.41-7.49-0.62-2.37-0.6-3.73-1.63-3.73-2.84 0-1.2 2.77-5.03 6.12-8.46 1.66-1.7 2.71-2.57 3.63-3 0.51-0.25 0.77-0.27 3-0.26 4.63 0.01 8.53 0.81 10.49 2.16 1.2 0.83 1.17 0.64 0.95 5.97-0.19 4.55-0.2 4.61-0.51 5.05-0.17 0.25-0.31 0.56-0.31 0.7 0 0.34-0.69 0.98-1.43 1.32-0.55 0.25-0.85 0.29-2.44 0.31-1 0.01-4.73-0.14-8.28-0.33z" class="YgNPKkQA_67" fill="#00a9ef"/>
   <path id="path3494" d="m874.35 408.96c-1.73-0.13-3.69-0.85-4.7-1.72-1.18-1.01-1.8-2.52-1.8-4.36 0.01-1.77 0.35-5.57 0.57-6.22 0.39-1.19 1.64-2.15 3.32-2.55 1.79-0.43 5.1-0.37 7.04 0.13 1.87 0.48 3.46 1.6 4.07 2.87 0.41 0.84 0.44 1.59 0.2 4.97-0.22 3.05-0.35 3.64-1.03 4.61-1.16 1.67-4.08 2.54-7.67 2.27z" class="YgNPKkQA_68" fill="#00a9ef"/>
   <path id="path3496" d="m893 411.65c-3.71-0.32-5.88-1.91-6.47-4.76-0.17-0.81-0.17-1.18 0.01-3.65 0.11-1.52 0.28-3.08 0.38-3.48 0.38-1.53 1.33-2.36 3.32-2.92 1.09-0.31 5.23-0.32 6.55-0.02 2.65 0.61 4.34 1.83 4.89 3.56 0.2 0.61 0.2 0.85-0.01 3.86-0.12 1.77-0.3 3.48-0.39 3.81-0.78 2.62-3.91 3.98-8.28 3.6z" class="YgNPKkQA_69" fill="#00a9ef"/>
   <path id="path3498" d="m912.29 413.91c-3.79-0.3-6.06-2.03-6.56-4.98-0.11-0.67-0.1-1.38 0.06-3.4 0.3-3.82 0.38-4.15 1.21-5.06 0.6-0.66 1.33-1.06 2.49-1.38 1.09-0.31 5.23-0.32 6.55-0.02 2.68 0.61 4.33 1.83 4.89 3.59 0.2 0.64 0.2 0.85-0.01 3.86-0.12 1.75-0.3 3.45-0.39 3.78-0.78 2.61-3.87 3.96-8.24 3.61z" class="YgNPKkQA_70" fill="#00a9ef"/>
   <path id="path3500" d="m934.98 416.49c-4.02-0.78-7.6-1.52-7.96-1.64-0.9-0.3-1.79-1.01-2.19-1.75-0.61-1.11-0.59-1.41 0.39-6.15 0.48-2.35 0.96-4.45 1.07-4.65 0.11-0.21 0.37-0.47 0.6-0.59 0.22-0.11 0.54-0.31 0.72-0.44 0.57-0.43 2.32-0.64 4.49-0.56 2.88 0.11 6.9 0.79 8.18 1.37 1.3 0.6 2.26 1.78 4.2 5.15 1.49 2.58 3.08 6.26 3.39 7.82 0.12 0.66 0.11 0.78-0.13 1.27-0.5 1.02-1.65 1.47-3.95 1.54-1.48 0.04-1.58 0.03-8.81-1.37z" class="YgNPKkQA_71" fill="#00a9ef"/>
   <path id="path3502" d="m954.9 422.56l6.83-34.93" stroke="#000" stroke-width="1.0353px" class="YgNPKkQA_72" fill="none"/>
   <path id="path4312" d="m931.35 394.59l30.93-10.96 1.37 3.41-31.24 10.91z" fill-rule="evenodd" stroke="#000" stroke-width="1px" class="YgNPKkQA_73" fill="#0077c8"/>
   <animateTransform id="animateTransform6925" begin="0s" additive="sum" calcMode="spline" keySplines="0 0 1 1" repeatCount="indefinite" attributeName="transform" values="0 0;-1923.2720626773141 -211.9292078308398" attributeType="auto" accumulate="none" dur="10s" fill="freeze" type="translate" keyTimes="0;1"/>
  </g>
 </g>
 <style id="style1914">.YgNPKkQA_0{stroke-dasharray:6001 6003;stroke-dashoffset:6002;animation:YgNPKkQA_draw 2000ms linear 0ms forwards;}.YgNPKkQA_1{stroke-dasharray:0 2;stroke-dashoffset:1;animation:YgNPKkQA_draw 2000ms linear 13ms forwards;}.YgNPKkQA_2{stroke-dasharray:846 848;stroke-dashoffset:847;animation:YgNPKkQA_draw 2000ms linear 27ms forwards;}.YgNPKkQA_3{stroke-dasharray:989 991;stroke-dashoffset:990;animation:YgNPKkQA_draw 2000ms linear 41ms forwards;}.YgNPKkQA_4{stroke-dasharray:867 869;stroke-dashoffset:868;animation:YgNPKkQA_draw 2000ms linear 54ms forwards;}.YgNPKkQA_5{stroke-dasharray:165 167;stroke-dashoffset:166;animation:YgNPKkQA_draw 2000ms linear 68ms forwards;}.YgNPKkQA_6{stroke-dasharray:165 167;stroke-dashoffset:166;animation:YgNPKkQA_draw 2000ms linear 82ms forwards;}.YgNPKkQA_7{stroke-dasharray:165 167;stroke-dashoffset:166;animation:YgNPKkQA_draw 2000ms linear 95ms forwards;}.YgNPKkQA_8{stroke-dasharray:165 167;stroke-dashoffset:166;animation:YgNPKkQA_draw 2000ms linear 109ms forwards;}.YgNPKkQA_9{stroke-dasharray:165 167;stroke-dashoffset:166;animation:YgNPKkQA_draw 2000ms linear 123ms forwards;}.YgNPKkQA_10{stroke-dasharray:165 167;stroke-dashoffset:166;animation:YgNPKkQA_draw 2000ms linear 136ms forwards;}.YgNPKkQA_11{stroke-dasharray:165 167;stroke-dashoffset:166;animation:YgNPKkQA_draw 2000ms linear 150ms forwards;}.YgNPKkQA_12{stroke-dasharray:165 167;stroke-dashoffset:166;animation:YgNPKkQA_draw 2000ms linear 164ms forwards;}.YgNPKkQA_13{stroke-dasharray:165 167;stroke-dashoffset:166;animation:YgNPKkQA_draw 2000ms linear 178ms forwards;}.YgNPKkQA_14{stroke-dasharray:165 167;stroke-dashoffset:166;animation:YgNPKkQA_draw 2000ms linear 191ms forwards;}.YgNPKkQA_15{stroke-dasharray:165 167;stroke-dashoffset:166;animation:YgNPKkQA_draw 2000ms linear 205ms forwards;}.YgNPKkQA_16{stroke-dasharray:165 167;stroke-dashoffset:166;animation:YgNPKkQA_draw 2000ms linear 219ms forwards;}.YgNPKkQA_17{stroke-dasharray:165 167;stroke-dashoffset:166;animation:YgNPKkQA_draw 2000ms linear 232ms forwards;}.YgNPKkQA_18{stroke-dasharray:165 167;stroke-dashoffset:166;animation:YgNPKkQA_draw 2000ms linear 246ms forwards;}.YgNPKkQA_19{stroke-dasharray:165 167;stroke-dashoffset:166;animation:YgNPKkQA_draw 2000ms linear 260ms forwards;}.YgNPKkQA_20{stroke-dasharray:165 167;stroke-dashoffset:166;animation:YgNPKkQA_draw 2000ms linear 273ms forwards;}.YgNPKkQA_21{stroke-dasharray:165 167;stroke-dashoffset:166;animation:YgNPKkQA_draw 2000ms linear 287ms forwards;}.YgNPKkQA_22{stroke-dasharray:165 167;stroke-dashoffset:166;animation:YgNPKkQA_draw 2000ms linear 301ms forwards;}.YgNPKkQA_23{stroke-dasharray:165 167;stroke-dashoffset:166;animation:YgNPKkQA_draw 2000ms linear 315ms forwards;}.YgNPKkQA_24{stroke-dasharray:4057 4059;stroke-dashoffset:4058;animation:YgNPKkQA_draw 2000ms linear 328ms forwards;}.YgNPKkQA_25{stroke-dasharray:458 460;stroke-dashoffset:459;animation:YgNPKkQA_draw 2000ms linear 342ms forwards;}.YgNPKkQA_26{stroke-dasharray:454 456;stroke-dashoffset:455;animation:YgNPKkQA_draw 2000ms linear 356ms forwards;}.YgNPKkQA_27{stroke-dasharray:312 314;stroke-dashoffset:313;animation:YgNPKkQA_draw 2000ms linear 369ms forwards;}.YgNPKkQA_28{stroke-dasharray:337 339;stroke-dashoffset:338;animation:YgNPKkQA_draw 2000ms linear 383ms forwards;}.YgNPKkQA_29{stroke-dasharray:342 344;stroke-dashoffset:343;animation:YgNPKkQA_draw 2000ms linear 397ms forwards;}.YgNPKkQA_30{stroke-dasharray:306 308;stroke-dashoffset:307;animation:YgNPKkQA_draw 2000ms linear 410ms forwards;}.YgNPKkQA_31{stroke-dasharray:329 331;stroke-dashoffset:330;animation:YgNPKkQA_draw 2000ms linear 424ms forwards;}.YgNPKkQA_32{stroke-dasharray:196 198;stroke-dashoffset:197;animation:YgNPKkQA_draw 2000ms linear 438ms forwards;}.YgNPKkQA_33{stroke-dasharray:232 234;stroke-dashoffset:233;animation:YgNPKkQA_draw 2000ms linear 452ms forwards;}.YgNPKkQA_34{stroke-dasharray:337 339;stroke-dashoffset:338;animation:YgNPKkQA_draw 2000ms linear 465ms forwards;}.YgNPKkQA_35{stroke-dasharray:842 844;stroke-dashoffset:843;animation:YgNPKkQA_draw 2000ms linear 479ms forwards;}.YgNPKkQA_36{stroke-dasharray:207 209;stroke-dashoffset:208;animation:YgNPKkQA_draw 2000ms linear 493ms forwards;}.YgNPKkQA_37{stroke-dasharray:763 765;stroke-dashoffset:764;animation:YgNPKkQA_draw 2000ms linear 506ms forwards;}.YgNPKkQA_38{stroke-dasharray:254 256;stroke-dashoffset:255;animation:YgNPKkQA_draw 2000ms linear 520ms forwards;}.YgNPKkQA_39{stroke-dasharray:231 233;stroke-dashoffset:232;animation:YgNPKkQA_draw 2000ms linear 534ms forwards;}.YgNPKkQA_40{stroke-dasharray:250 252;stroke-dashoffset:251;animation:YgNPKkQA_draw 2000ms linear 547ms forwards;}.YgNPKkQA_41{stroke-dasharray:252 254;stroke-dashoffset:253;animation:YgNPKkQA_draw 2000ms linear 561ms forwards;}.YgNPKkQA_42{stroke-dasharray:322 324;stroke-dashoffset:323;animation:YgNPKkQA_draw 2000ms linear 575ms forwards;}.YgNPKkQA_43{stroke-dasharray:583 585;stroke-dashoffset:584;animation:YgNPKkQA_draw 2000ms linear 589ms forwards;}.YgNPKkQA_44{stroke-dasharray:359 361;stroke-dashoffset:360;animation:YgNPKkQA_draw 2000ms linear 602ms forwards;}.YgNPKkQA_45{stroke-dasharray:265 267;stroke-dashoffset:266;animation:YgNPKkQA_draw 2000ms linear 616ms forwards;}.YgNPKkQA_46{stroke-dasharray:266 268;stroke-dashoffset:267;animation:YgNPKkQA_draw 2000ms linear 630ms forwards;}.YgNPKkQA_47{stroke-dasharray:606 608;stroke-dashoffset:607;animation:YgNPKkQA_draw 2000ms linear 643ms forwards;}.YgNPKkQA_48{stroke-dasharray:254 256;stroke-dashoffset:255;animation:YgNPKkQA_draw 2000ms linear 657ms forwards;}.YgNPKkQA_49{stroke-dasharray:149 151;stroke-dashoffset:150;animation:YgNPKkQA_draw 2000ms linear 671ms forwards;}.YgNPKkQA_50{stroke-dasharray:272 274;stroke-dashoffset:273;animation:YgNPKkQA_draw 2000ms linear 684ms forwards;}.YgNPKkQA_51{stroke-dasharray:579 581;stroke-dashoffset:580;animation:YgNPKkQA_draw 2000ms linear 698ms forwards;}.YgNPKkQA_52{stroke-dasharray:416 418;stroke-dashoffset:417;animation:YgNPKkQA_draw 2000ms linear 712ms forwards;}.YgNPKkQA_53{stroke-dasharray:537 539;stroke-dashoffset:538;animation:YgNPKkQA_draw 2000ms linear 726ms forwards;}.YgNPKkQA_54{stroke-dasharray:722 724;stroke-dashoffset:723;animation:YgNPKkQA_draw 2000ms linear 739ms forwards;}.YgNPKkQA_55{stroke-dasharray:593 595;stroke-dashoffset:594;animation:YgNPKkQA_draw 2000ms linear 753ms forwards;}.YgNPKkQA_56{stroke-dasharray:2302 2304;stroke-dashoffset:2303;animation:YgNPKkQA_draw 2000ms linear 767ms forwards;}.YgNPKkQA_57{stroke-dasharray:1932 1934;stroke-dashoffset:1933;animation:YgNPKkQA_draw 2000ms linear 780ms forwards;}.YgNPKkQA_58{stroke-dasharray:1932 1934;stroke-dashoffset:1933;animation:YgNPKkQA_draw 2000ms linear 794ms forwards;}.YgNPKkQA_59{stroke-dasharray:296 298;stroke-dashoffset:297;animation:YgNPKkQA_draw 2000ms linear 808ms forwards;}.YgNPKkQA_60{stroke-dasharray:64 66;stroke-dashoffset:65;animation:YgNPKkQA_draw 2000ms linear 821ms forwards;}.YgNPKkQA_61{stroke-dasharray:64 66;stroke-dashoffset:65;animation:YgNPKkQA_draw 2000ms linear 835ms forwards;}.YgNPKkQA_62{stroke-dasharray:71 73;stroke-dashoffset:72;animation:YgNPKkQA_draw 2000ms linear 849ms forwards;}.YgNPKkQA_63{stroke-dasharray:71 73;stroke-dashoffset:72;animation:YgNPKkQA_draw 2000ms linear 863ms forwards;}.YgNPKkQA_64{stroke-dasharray:55 57;stroke-dashoffset:56;animation:YgNPKkQA_draw 2000ms linear 876ms forwards;}.YgNPKkQA_65{stroke-dasharray:55 57;stroke-dashoffset:56;animation:YgNPKkQA_draw 2000ms linear 890ms forwards;}.YgNPKkQA_66{stroke-dasharray:55 57;stroke-dashoffset:56;animation:YgNPKkQA_draw 2000ms linear 904ms forwards;}.YgNPKkQA_67{stroke-dasharray:67 69;stroke-dashoffset:68;animation:YgNPKkQA_draw 2000ms linear 917ms forwards;}.YgNPKkQA_68{stroke-dasharray:51 53;stroke-dashoffset:52;animation:YgNPKkQA_draw 2000ms linear 931ms forwards;}.YgNPKkQA_69{stroke-dasharray:51 53;stroke-dashoffset:52;animation:YgNPKkQA_draw 2000ms linear 945ms forwards;}.YgNPKkQA_70{stroke-dasharray:51 53;stroke-dashoffset:52;animation:YgNPKkQA_draw 2000ms linear 958ms forwards;}.YgNPKkQA_71{stroke-dasharray:67 69;stroke-dashoffset:68;animation:YgNPKkQA_draw 2000ms linear 972ms forwards;}.YgNPKkQA_72{stroke-dasharray:36 38;stroke-dashoffset:37;animation:YgNPKkQA_draw 2000ms linear 986ms forwards;}.YgNPKkQA_73{stroke-dasharray:74 76;stroke-dashoffset:75;animation:YgNPKkQA_draw 2000ms linear 1000ms forwards;}@keyframes YgNPKkQA_draw{100%{stroke-dashoffset:0;}}@keyframes YgNPKkQA_fade{0%{stroke-opacity:1;}94.44444444444444%{stroke-opacity:1;}100%{stroke-opacity:0;}}</style>
</svg>
