<?xml version="1.0" encoding="UTF-8" standalone="no"?>
<!--?xml version="1.0" encoding="UTF-8" standalone="no"?-->
<svg id="svg" xmlns:rdf="http://www.w3.org/1999/02/22-rdf-syntax-ns#" style="" xmlns="http://www.w3.org/2000/svg" xmlns:osb="http://www.openswatchbook.org/uri/2009/osb" height="1080" width="1920" version="1.1" xmlns:cc="http://creativecommons.org/ns#" xmlns:xlink="http://www.w3.org/1999/xlink" xmlns:dc="http://purl.org/dc/elements/1.1/">
 <metadata id="metadata4179">
  <rdf:rdf>
   <cc:work rdf:about="">
    <dc:format>image/svg+xml</dc:format>
    <dc:type rdf:resource="http://purl.org/dc/dcmitype/StillImage"/>
    <dc:title/>
   </cc:work>
  </rdf:rdf>
 </metadata>
 <defs id="defs4177">
  <linearGradient id="linearGradient7401">
   <stop id="stop7403" stop-color="#fff" stop-opacity=".58824" offset="0"/>
   <stop id="stop7405" stop-color="#ececec" stop-opacity=".58824" offset="1"/>
  </linearGradient>
  <radialGradient id="radialGradient7391" xlink:href="#linearGradient7401" gradientUnits="userSpaceOnUse" cy="303.37" cx="875.45" gradientTransform="matrix(1 0 0 .52702 0 143.49)" r="179.8"/>
  <radialGradient id="radialGradient7399" xlink:href="#linearGradient7401" gradientUnits="userSpaceOnUse" cy="467.04" cx="1305.2" gradientTransform="matrix(1 0 0 .50176 0 232.7)" r="166.79"/>
  <radialGradient id="radialGradient7415" xlink:href="#linearGradient7401" gradientUnits="userSpaceOnUse" cy="473.6" cx="450.62" gradientTransform="matrix(1 0 0 .52096 0 226.88)" r="167.3"/>
 </defs>
 <g id="layer17">
  <path id="rect5622" stroke-width="0" d="m0.0013442 0.02716h1920v1080.3h-1920z" width="1919.9973" display="block" height="1080.2738" class="YgNPKkQA_0" fill="#00a9ef"/>
  <path id="path5698" d="m1299.7 383.85c41.542 0.70711 59.043 34.295 59.043 34.295s5.4521-2.6559 9.3379-3.3555c5.0898-0.91637 14.163-0.22164 19.123 0.52704 9.3692 1.4142 19.622 9.1924 23.511 22.627 62.225 2.1213 60.811 58.336 60.811 58.336-7.1143 49.568-50.912 53.74-50.912 53.74-37.988 2.0429-45.469-11.511-45.962-11.314-27.577 9.1924-44.194-6.0104-44.194-6.0104-31.517 15.812-63.721 0.40883-63.64 0-23.501 20.057-43.172 5.2605-45.255 6.0104-67.871 34.59-86.344-44.602-82.024-42.78 4.331-55.345 55.077-50.087 55.154-51.265 13.686-38.62 51.078-29.308 47.73-29.698 22.427-29.029 40.957-29.155 57.276-31.113z" fill-rule="evenodd" stroke="#fff" stroke-width="1px" class="YgNPKkQA_2" fill="url(#radialGradient7399)"/>
  <path id="path7381" d="m922.77 240.31c29.553-5.5202 31.499 3.2807 37.83 2.8284 62.872-30.381 79.2 35.161 77.782 33.941 3.5102 24.216-10.353 39.87-10.96 40.659 40.27 15.782 24.099 56.842 24.218 53.387-20.894 36.198-53.072 28.794-73.009 15.91-35.834 21.409-62.224-8.4851-62.225-8.4853-52.032 31.286-84.868-15.602-82.908-16.263-30.591 27.493-54.918 12.389-56.038 13.081-42.612 25.27-69.915-9.1037-70.004-9.1924-28.996-43.151 6.425-69.708 10.138-72.105 14.483-12.293 36.964-9.2231 39.005-8.8588-12.236-39.839 17.166-55.924 25.456-59.479 21.463-8.514 33.536 2.1898 34.648 1.8499 10.066-9.1858 20.202-15.161 47.288-18.473 54.976 2.2789 58.009 32.995 58.778 31.201z" fill-rule="evenodd" stroke="#fff" stroke-width="1px" class="YgNPKkQA_3" fill="url(#radialGradient7391)"/>
  <path id="path7407" d="m419.25 387c33.046 0.70351 38.649 21.306 42.25 21 12.901-13.621 29.037-12.43 32.207-12.454 34.452 0.96922 41.682 34.226 44.043 34.204 9.3384-0.83233 8.5 7.75 8.5 7.75 7.9134-3.8569 12.903-4.8221 17.601-5.1768 46 2.25 52.649 43.927 52.649 43.927 3.3489 38.545-2.7304 33.683-14 47.375-31.817 27.465-55.454 10.824-59.5 9.875-18.625 26.375-58.875 26.75-58.875 26.75-35 0.63-56.12-23.25-56.12-23.25-41.623 13.861-63.5-16.25-63.5-16.25-61.722 19.139-79.75-39.25-79.75-39.25-8-64.5 37.75-73.75 37.75-73.75 31.25-9.75 48.75 5.75 48.75 5.75 11.75-29 48-26.5 48-26.5z" fill-rule="evenodd" stroke="#fff" stroke-width="1px" class="YgNPKkQA_4" fill="url(#radialGradient7415)"/>
 </g>
 <g id="layer18" fill-opacity=".58824" display="none" stroke="#fd0" stroke-width="4.5" fill="#ff0">
  <path id="path7424" class="YgNPKkQA_5" d="m214.96 104.19-15.465-5.5854-4.3312 15.862 0.533-16.434-16.424 0.78244 15.795-4.5715-5.8195-15.379 9.2286 13.609 12.828-10.287-10.091 12.982z" display="inline"/>
  <path id="path7424-7" class="YgNPKkQA_6" d="m106.63 377.92-15.465-5.5854-4.3312 15.862 0.533-16.434-16.424 0.78244 15.795-4.5715-5.8195-15.379 9.2286 13.609 12.828-10.287-10.091 12.982z" display="inline"/>
  <path id="path7424-3" class="YgNPKkQA_7" d="m437.28 288.43-15.465-5.5854-4.3312 15.862 0.53299-16.434-16.424 0.78244 15.795-4.5715-5.8195-15.379 9.2286 13.609 12.828-10.287-10.091 12.982z" display="inline"/>
  <path id="path7424-7-9" class="YgNPKkQA_8" d="m225.71 627.22-15.465-5.5854-4.3312 15.862 0.533-16.434-16.424 0.78243 15.795-4.5715-5.8195-15.379 9.2286 13.609 12.828-10.287-10.091 12.982z" display="inline"/>
  <path id="path7424-79" class="YgNPKkQA_9" d="m717.29 108.83-15.465-5.5854-4.3312 15.862 0.533-16.434-16.424 0.78244 15.795-4.5715-5.8195-15.379 9.2286 13.609 12.828-10.287-10.091 12.982z" display="inline"/>
  <path id="path7424-7-7" class="YgNPKkQA_10" d="m675.43 454.69-15.465-5.5854-4.3312 15.862 0.533-16.434-16.424 0.78244 15.795-4.5715-5.8195-15.379 9.2286 13.609 12.828-10.287-10.091 12.982z" display="inline"/>
  <path id="path7424-2" class="YgNPKkQA_11" d="m1008.6 151.26-15.465-5.5854-4.3312 15.862 0.533-16.434-16.424 0.78244 15.795-4.5715-5.8195-15.379 9.2286 13.609 12.828-10.287-10.091 12.982z" display="inline"/>
  <path id="path7424-7-72" class="YgNPKkQA_12" d="m908.78 365.59-15.465-5.5854-4.3312 15.862 0.533-16.434-16.424 0.78244 15.795-4.5715-5.8195-15.379 9.2286 13.609 12.828-10.287-10.091 12.982z" display="inline"/>
  <path id="path7424-7-9-5" class="YgNPKkQA_13" d="m601.61 717.34-15.465-5.5854-4.3312 15.862 0.53299-16.434-16.424 0.78244 15.795-4.5715-5.8195-15.379 9.2286 13.609 12.828-10.287-10.091 12.982z" display="inline"/>
  <path id="path7424-7-7-5" class="YgNPKkQA_14" d="m982.03 690.47-15.465-5.5854-4.3312 15.862 0.533-16.434-16.424 0.78244 15.795-4.5715-5.8195-15.379 9.2286 13.609 12.828-10.287-10.091 12.982z" display="inline"/>
  <path id="path7424-7-72-8" class="YgNPKkQA_15" d="m1187.1 537.73-15.465-5.5854-4.3312 15.862 0.533-16.434-16.424 0.78244 15.795-4.5715-5.8195-15.379 9.2285 13.609 12.828-10.287-10.091 12.982z" display="inline"/>
  <path id="path7424-7-9-6" class="YgNPKkQA_16" d="m1221 318.53-15.465-5.5854-4.3312 15.862 0.533-16.434-16.424 0.78244 15.794-4.5715-5.8195-15.379 9.2286 13.609 12.828-10.287-10.091 12.982z" display="inline"/>
  <path id="path7424-7-7-7" class="YgNPKkQA_17" d="m1595.8 293.07-15.465-5.5854-4.3312 15.862 0.533-16.434-16.424 0.78244 15.794-4.5715-5.8195-15.379 9.2286 13.609 12.828-10.287-10.091 12.982z" display="inline"/>
  <path id="path7424-7-72-5" class="YgNPKkQA_18" d="m1800.9 140.34-15.465-5.5854-4.3312 15.862 0.533-16.434-16.424 0.78243 15.794-4.5715-5.8195-15.379 9.2286 13.609 12.828-10.287-10.091 12.982z" display="inline"/>
  <path id="path7424-7-7-7-4" class="YgNPKkQA_19" d="m1451.6 561.77-15.465-5.5854-4.3312 15.862 0.533-16.434-16.424 0.78244 15.794-4.5715-5.8195-15.379 9.2286 13.609 12.828-10.287-10.091 12.982z" display="inline"/>
  <path id="path7424-7-7-7-3" class="YgNPKkQA_20" d="m1383.7 759.76-15.465-5.5854-4.3312 15.862 0.533-16.434-16.424 0.78244 15.794-4.5715-5.8195-15.379 9.2286 13.609 12.828-10.287-10.091 12.982z" display="inline"/>
  <path id="path7424-7-7-7-9" class="YgNPKkQA_21" d="m1803.7 704.61-15.465-5.5854-4.3312 15.862 0.533-16.434-16.424 0.78244 15.794-4.5715-5.8195-15.379 9.2286 13.609 12.828-10.287-10.091 12.982z" display="inline"/>
  <path id="path7424-7-7-7-48" class="YgNPKkQA_22" d="m1890 437.32-15.465-5.5854-4.3312 15.862 0.533-16.434-16.424 0.78244 15.794-4.5715-5.8195-15.379 9.2286 13.609 12.828-10.287-10.091 12.982z" display="inline"/>
  <path id="path7424-7-7-7-46" class="YgNPKkQA_23" d="m1414.8 95.081-15.465-5.5854-4.3312 15.862 0.533-16.434-16.424 0.78244 15.795-4.5715-5.8195-15.379 9.2286 13.609 12.828-10.287-10.091 12.982z" display="inline"/>
 </g>
 <g id="layer2" transform="translate(0,855)">
  <path id="path4753" d="m2.4117 13.455v209.72h1917.6z" fill-rule="evenodd" stroke="#002d72" stroke-width="4.7982px" class="YgNPKkQA_24" fill="#002d72"/>
 </g>
 <g id="layer4" fill-rule="evenodd" transform="translate(0,855)" stroke="#002d72" stroke-width="4.7976px" fill="#004c9b">
  <path id="path4756" d="m2.3369 11.367v-149.69h74.634v157.75z" class="YgNPKkQA_25"/>
  <path id="path4758" d="m152.8-112.56v140.15l82.479 8.481v-148.21z" class="YgNPKkQA_26"/>
  <path id="path4762" d="m558.19-5.4893v77.39l74.209 7.845v-85.235z" class="YgNPKkQA_27"/>
  <path id="path4764" d="m939.7 5.1716h56.672v114.24l-56.372-5.6971z" class="YgNPKkQA_28"/>
  <path id="path4766" d="m1021.6 48.95h91.755v83.958l-89.956-10.495v-72.864z" stroke-opacity=".94510" class="YgNPKkQA_29"/>
  <path id="path4770" d="m1373.9 59.445h47.976v105.85l-49.476-5.0975v-100.45z" class="YgNPKkQA_30"/>
  <path id="path4774" d="m1848.2 95.727h44.678v121.74l-45.278-5.0975z" class="YgNPKkQA_31"/>
  <path id="path4812" d="m1296.5 126.6h68.273v33.076l-68.273-7.2089z" class="YgNPKkQA_32"/>
  <path id="path4817" d="m1563.2 132.12h-71.241v40.921l70.605 7.845z" class="YgNPKkQA_33"/>
 </g>
 <g id="layer5" fill-rule="evenodd" transform="translate(0,855)" stroke-width="4.7976px" fill="#004c9b">
  <path id="path4777" d="m36.183-60.687h86.507v85.235l-87.567-9.9653v-75.482z" stroke="#002d72" class="YgNPKkQA_34"/>
  <path id="path4779" d="m217.47-84.575h285.05v150.02l-285.46-31.185v-119.04z" stroke="#002d72" class="YgNPKkQA_35"/>
  <path id="path4781" d="m569.38 72.338v-46.177h-59.97v40.48z" stroke="#002d72" class="YgNPKkQA_36"/>
  <path id="path4783" d="m579.28 74.137v-106.75h259.67v135.23z" stroke="#002d72" class="YgNPKkQA_37"/>
  <path id="path4785" d="m1037.1 124.51v-64.468h-65.368v57.571z" stroke-opacity=".98039" stroke="#002e74" class="YgNPKkQA_38"/>
  <path id="path4789" d="m1346.9 84.332h39.58v77.362l-39.28-3.5982z" stroke="#002d72" class="YgNPKkQA_39"/>
  <path id="path4768" d="m1264.7 82.233h53.973l0.5996 73.164-54.873-6.5968v-66.567z" stroke="#002d72" class="YgNPKkQA_40"/>
  <path id="path4772" d="m1458.1 92.728h45.278v83.059l-45.877-6.5968z" stroke="#002d72" class="YgNPKkQA_41"/>
  <path id="path4836" d="m1756.3 162.59h114.09v52.624l-114.39-12.594z" stroke="#002d72" class="YgNPKkQA_42"/>
 </g>
 <g id="layer6" fill-rule="evenodd" transform="translate(0,855)" stroke="#002d72" stroke-width="4.7976px" fill="#004c9b">
  <path id="path4760" d="m378.18 51.97v-186.58h99.017v197.61z" class="YgNPKkQA_43"/>
  <path id="path4803" d="m110.82-78.215h73.785v109.41l-73.785-8.9052z" class="YgNPKkQA_44"/>
  <path id="path4787" d="m1290.8 152.4v-55.173h-81.56v46.177z" class="YgNPKkQA_45"/>
  <path id="path4791" d="m1403.9 108.62h73.164v63.868l-73.164-8.6957z" class="YgNPKkQA_46"/>
  <path id="path4828" d="m643.14 81.034v-59.371h229.69v84.858z" class="YgNPKkQA_47"/>
  <path id="path4839" d="m1821.4 124.21h40.18v88.906l-39.581-4.4978z" class="YgNPKkQA_48"/>
  <path id="path4841" d="m1886.1 176.09h31.784v44.228l-31.784-3.4483z" class="YgNPKkQA_49"/>
 </g>
 <g id="layer7" fill-rule="evenodd" transform="translate(0,855)" stroke="#002d72" stroke-width="4.7976px" fill="#004c9b">
  <path id="path4806" d="m74.348-38.353h73.785v66.152l-73.361-8.057z" class="YgNPKkQA_50"/>
  <path id="path4834" d="m728.9 37.706h223.09v77.212l-223.99-24.588z" class="YgNPKkQA_51"/>
 </g>
 <g id="layer8" transform="translate(0,855)">
  <path id="path4830" d="m683.02 85.532v-94.453h107.05v106.45z" fill-rule="evenodd" stroke="#002d72" stroke-width="4.7976px" class="YgNPKkQA_52" fill="#004c9b"/>
 </g>
 <g id="layer9" transform="translate(0,855)">
  <path id="path4844" d="m430.77-43.866 29.896-10.177h81.63v93.08l-27.139 11.237 54.915 22.687-139.51-15.69z" fill-rule="evenodd" stroke="#002d72" stroke-width="4.7976px" class="YgNPKkQA_53" fill="#004c9b"/>
 </g>
 <g id="layer10" transform="translate(0,855)">
  <path id="path4859" d="m1179.5 76.035s0.023-16.822-25.1-16.822c-24.383 0-24.409 15.974-24.409 15.974v-62.654l-53.219-13.994v130.18l160.04 17.378v-135.83l-57.311 13.793z" fill-rule="evenodd" stroke="#002d72" stroke-width="4.7976px" class="YgNPKkQA_54" fill="#004c9b"/>
 </g>
 <g id="layer11" transform="translate(0,855)">
  <path id="path4862" d="m1792.8 156.5s-4.2405-62.336-122.76-62.336c-112.37 0-107.5 61.488-107.5 61.488v25.019l230.26 25.443z" fill-rule="evenodd" stroke="#002d72" stroke-width="4.7976px" class="YgNPKkQA_55" fill="#004c9b"/>
 </g>
 <g id="layer12" transform="translate(0,855)">
  <path id="path4867" d="m1650.3 190.48-17.391-487.41c46.477-11.694 49.476-64.468 49.476-64.468h-11.095v-5.997h19.79v-17.758l-29.985-0.10599v-7.177l19.94-0.10598v-11.296l-20.84 0.0747-0.1496-5.9961 5.3974-0.0377v-10.373h-2.6989v-12.294h-42.279v-172.43h7.3599s1.3561-15.402-2.3175-15.402c-3.1419 0-5.1035 0.54125-5.1035-2.832 0-16.844 0.766-35.999-0.2122-39.649-0.7701-2.8742-5.3005-10.813-5.3005-10.813s0.2122-35.196-0.2122-45.374c-0.4241-10.177 0.2122-16.962-3.4282-16.962-3.6404 0.00013-3.0044 6.785-3.4283 16.962-0.4243 10.177-0.2121 45.374-0.2121 45.374s-4.5307 7.9392-5.3007 10.813c-0.978 3.6498-0.212 22.805-0.212 39.649 0 3.3732-1.9616 2.832-5.1035 2.832-3.6735 0-2.3174 15.402-2.3174 15.402h7.3598v172.43h-42.279v12.294h-2.6987v10.373l5.3975 0.0377-0.15 5.9961-20.84-0.0747v11.296l19.94 0.10598v7.177l-29.985 0.10598v17.758h19.79v5.997h-11.094s2.9985 52.774 49.476 64.468l-17.391 477.87z" fill-rule="evenodd" stroke="#002d72" stroke-width="4.7976px" class="YgNPKkQA_56" fill="#004c9b"/>
 </g>
 <g id="layer13" transform="translate(0,855)">
  <path id="path4914" d="m1920.3 163.71-1920-213.09" stroke="#000" stroke-width="4.8008px" class="YgNPKkQA_57" fill="none"/>
 </g>
 <g id="layer14">
  <path id="path4917" d="m0.125 12.125 1919.9 207.3" transform="translate(0,855)" class="YgNPKkQA_58" stroke="#00a9ef" stroke-width="4.5" fill="none"/>
 </g>
 <g id="layer15">
  <g id="g4314" transform="translate(955.96 633.53)">
   <path id="path3397" d="m867.14 384.08c-4.773-0.61872-7.1595 5.3033-7.1595 5.3033s-9.385-1.6436-12.032 0.0518c-4.2551 2.7258-15.924 17.633-16.409 18.891-4.4467 11.522 7.8801 13.725 7.8801 13.725l52.441 5.8134 52.318 6.8356s12.497 0.79006 10.916-11.458c-0.17258-1.3372-7.9639-18.59-11.449-22.25-2.1677-2.2758-11.674-2.91-11.674-2.91s-0.91051-6.3195-5.6938-6.853z" fill-rule="evenodd" stroke="#000" stroke-width="1px" class="YgNPKkQA_59" fill="#0077c8"/>
   <path id="path3431" d="m881.67 427.96c-0.51596 3.0778-1.7042 4.6077-13.789 3.5797-7.8746-0.80398-12.631-2.5524-12.286-6.1872 0.7472-5.4469 2.6476-4.7753 13.214-3.9775 14.243 1.315 13.245 3.758 12.861 6.5849z" fill-rule="evenodd" stroke="#000" stroke-width="1px" class="YgNPKkQA_60" fill="#0077c8"/>
   <path id="path3431-0" d="m927.58 433.49c-0.51596 3.0778-1.7042 4.6077-13.789 3.5797-7.8746-0.80398-12.631-2.5524-12.286-6.1872 0.7472-5.4469 2.6476-4.7753 13.214-3.9775 14.243 1.315 13.245 3.758 12.861 6.5849z" fill-rule="evenodd" stroke="#000" stroke-width="1px" class="YgNPKkQA_61" fill="#0077c8"/>
   <path id="path3450" d="m864.66 395.08-0.35355 8.7946s-0.17678 4.3752-5.922 3.7123l-13.744-0.7071s-7.6014-0.97228-4.8614-5.4359 6.364-7.7782 6.364-7.7782c2.0131-1.9964 3.1639-3.1237 6.8059-2.8063 12.021 0.55242 11.711 4.2205 11.711 4.2205z" stroke="#000" stroke-width="1px" class="YgNPKkQA_62" fill="none"/>
   <path id="path3450-0" d="m925.62 402.19-1.747 8.6266s-0.86821 4.2918 4.87 5.0135l13.519 2.58s7.6146 0.86232 6.0141-4.1246c-1.6006-4.987-4.3328-9.0679-4.3328-9.0679-1.4809-2.4177-2.3308-3.7862-5.9438-4.3436-11.808-2.3206-12.379 1.3159-12.379 1.3159z" stroke="#000" stroke-width="1px" class="YgNPKkQA_63" fill="none"/>
   <path id="path3467" d="m883.84 398.69-0.375 5.4375c-0.34375 6.2812-8.6562 5.4062-8.6562 5.4062-8.21-0.35-7.55-6.92-7.55-6.92l0.3438-4.5938c0.1658-0.94322-0.16428-5.3456 8.8594-4.7188 7.6094 0.59375 7.3906 5.375 7.3906 5.375z" stroke="#000" stroke-width="1px" class="YgNPKkQA_64" fill="none"/>
   <path id="path3467-4" d="m902.43 401.4-0.375 5.4375c-0.34375 6.2812-8.6562 5.4062-8.6562 5.4062-8.2188-0.34375-7.5625-6.9062-7.5625-6.9062l0.3438-4.5938c0.1658-0.94322-0.16428-5.3456 8.8594-4.7188 7.6093 0.59375 7.3906 5.375 7.3906 5.375z" stroke="#000" stroke-width="1px" class="YgNPKkQA_65" fill="none"/>
   <path id="path3467-49" d="m921.68 403.65-0.375 5.4375c-0.34375 6.2812-8.6562 5.4062-8.6562 5.4062-8.2188-0.34375-7.5625-6.9062-7.5625-6.9062l0.3438-4.5938c0.1658-0.94322-0.16428-5.3456 8.8594-4.7188 7.6093 0.59375 7.3906 5.375 7.3906 5.375z" stroke="#000" stroke-width="1px" class="YgNPKkQA_66" fill="none"/>
   <path id="path3492" d="m850.95 406.67c-5.2694-0.28936-6.6566-0.40281-7.4841-0.61207-2.3773-0.60116-3.7354-1.6347-3.735-2.8425 0.00033-1.2018 2.7683-5.0289 6.1199-8.4616 1.6638-1.704 2.7133-2.5727 3.63-3.0046 0.51461-0.24243 0.76999-0.26451 3-0.25935 4.6328 0.0107 8.5315 0.81503 10.491 2.1643 1.2038 0.82893 1.1736 0.63909 0.94861 5.9681-0.19208 4.5502-0.19816 4.611-0.50445 5.053-0.17052 0.24606-0.31003 0.55988-0.31003 0.69739 0 0.34597-0.68973 0.98016-1.4375 1.3217-0.54923 0.25088-0.84475 0.28824-2.4375 0.30811-0.99688 0.0124-4.7232-0.13723-8.2808-0.33258z" class="YgNPKkQA_67" fill="#00a9ef"/>
   <path id="path3494" d="m874.35 408.96c-1.7319-0.13051-3.6918-0.84473-4.7037-1.7142-1.1789-1.0129-1.7973-2.5178-1.7946-4.3672 0.003-1.7664 0.34635-5.5619 0.56275-6.2134 0.39736-1.1964 1.6444-2.1547 3.3222-2.5531 1.795-0.42625 5.0997-0.36424 7.0388 0.13209 1.8762 0.4802 3.4622 1.5948 4.0761 2.8643 0.40778 0.84341 0.43699 1.5921 0.19428 4.9794-0.218 3.0426-0.34929 3.6321-1.0266 4.6095-1.1572 1.6698-4.0824 2.5328-7.6692 2.2625z" class="YgNPKkQA_68" fill="#00a9ef"/>
   <path id="path3496" d="m893 411.65c-3.7165-0.32375-5.8826-1.9155-6.4753-4.7583-0.16938-0.81232-0.16796-1.1862 0.0138-3.6595 0.11136-1.5151 0.28196-3.0772 0.3791-3.4714 0.37694-1.5297 1.3264-2.3683 3.3153-2.9282 1.0943-0.30807 5.2382-0.31851 6.555-0.0165 2.6526 0.60831 4.3373 1.8336 4.8939 3.5593 0.19574 0.60691 0.19504 0.85076-0.0111 3.8628-0.12103 1.7682-0.29938 3.4821-0.39633 3.8086-0.77825 2.6207-3.9081 3.9836-8.2744 3.6033z" class="YgNPKkQA_69" fill="#00a9ef"/>
   <path id="path3498" d="m912.29 413.91c-3.7869-0.30459-6.0589-2.0325-6.5572-4.987-0.11268-0.66804-0.10071-1.3739 0.0575-3.3941 0.29936-3.8217 0.37942-4.1554 1.214-5.0609 0.60402-0.65529 1.3294-1.0594 2.4862-1.3851 1.0928-0.3077 5.2377-0.31791 6.5536-0.0161 2.678 0.61414 4.3315 1.8286 4.8856 3.5885 0.20114 0.63876 0.20086 0.85703-0.005 3.8628-0.11994 1.7522-0.29739 3.4529-0.39434 3.7793-0.77526 2.6106-3.8638 3.9646-8.2405 3.6126z" class="YgNPKkQA_70" fill="#00a9ef"/>
   <path id="path3500" d="m934.98 416.49c-4.0219-0.77941-7.6025-1.5148-7.9569-1.6342-0.90396-0.30457-1.7921-1.0136-2.1936-1.7512-0.60339-1.1086-0.58415-1.4125 0.38933-6.1518 0.48363-2.3545 0.96619-4.4488 1.0724-4.6541 0.10615-0.20528 0.37487-0.46728 0.59714-0.58222 0.22228-0.11494 0.54873-0.31589 0.72546-0.44655 0.57206-0.42293 2.3156-0.63813 4.4912-0.55434 2.8749 0.11073 6.8941 0.78493 8.1749 1.3713 1.3002 0.59526 2.2655 1.7769 4.2043 5.1468 1.4854 2.5818 3.0749 6.2582 3.3831 7.8246 0.1283 0.6521 0.1164 0.77568-0.12147 1.2617-0.49923 1.02-1.6513 1.4689-3.9534 1.5405-1.484 0.0462-1.5779 0.0316-8.8125-1.3705z" class="YgNPKkQA_71" fill="#00a9ef"/>
   <path id="path3502" d="m954.9 422.56 6.8316-34.927" stroke="#000" stroke-width="1.0353px" class="YgNPKkQA_72" fill="none"/>
   <path id="path4312" d="m931.35 394.59 30.936-10.96 1.37 3.403-31.245 10.916z" fill-rule="evenodd" stroke="#000" stroke-width="1px" class="YgNPKkQA_73" fill="#0077c8"/>
  </g>
 </g>
 <style>.YgNPKkQA_0{stroke-dasharray:6001 6003;stroke-dashoffset:6002;animation:YgNPKkQA_draw 2000ms linear 0ms forwards;}.YgNPKkQA_1{stroke-dasharray:0 2;stroke-dashoffset:1;animation:YgNPKkQA_draw 2000ms linear 13ms forwards;}.YgNPKkQA_2{stroke-dasharray:846 848;stroke-dashoffset:847;animation:YgNPKkQA_draw 2000ms linear 27ms forwards;}.YgNPKkQA_3{stroke-dasharray:989 991;stroke-dashoffset:990;animation:YgNPKkQA_draw 2000ms linear 41ms forwards;}.YgNPKkQA_4{stroke-dasharray:867 869;stroke-dashoffset:868;animation:YgNPKkQA_draw 2000ms linear 54ms forwards;}.YgNPKkQA_5{stroke-dasharray:165 167;stroke-dashoffset:166;animation:YgNPKkQA_draw 2000ms linear 68ms forwards;}.YgNPKkQA_6{stroke-dasharray:165 167;stroke-dashoffset:166;animation:YgNPKkQA_draw 2000ms linear 82ms forwards;}.YgNPKkQA_7{stroke-dasharray:165 167;stroke-dashoffset:166;animation:YgNPKkQA_draw 2000ms linear 95ms forwards;}.YgNPKkQA_8{stroke-dasharray:165 167;stroke-dashoffset:166;animation:YgNPKkQA_draw 2000ms linear 109ms forwards;}.YgNPKkQA_9{stroke-dasharray:165 167;stroke-dashoffset:166;animation:YgNPKkQA_draw 2000ms linear 123ms forwards;}.YgNPKkQA_10{stroke-dasharray:165 167;stroke-dashoffset:166;animation:YgNPKkQA_draw 2000ms linear 136ms forwards;}.YgNPKkQA_11{stroke-dasharray:165 167;stroke-dashoffset:166;animation:YgNPKkQA_draw 2000ms linear 150ms forwards;}.YgNPKkQA_12{stroke-dasharray:165 167;stroke-dashoffset:166;animation:YgNPKkQA_draw 2000ms linear 164ms forwards;}.YgNPKkQA_13{stroke-dasharray:165 167;stroke-dashoffset:166;animation:YgNPKkQA_draw 2000ms linear 178ms forwards;}.YgNPKkQA_14{stroke-dasharray:165 167;stroke-dashoffset:166;animation:YgNPKkQA_draw 2000ms linear 191ms forwards;}.YgNPKkQA_15{stroke-dasharray:165 167;stroke-dashoffset:166;animation:YgNPKkQA_draw 2000ms linear 205ms forwards;}.YgNPKkQA_16{stroke-dasharray:165 167;stroke-dashoffset:166;animation:YgNPKkQA_draw 2000ms linear 219ms forwards;}.YgNPKkQA_17{stroke-dasharray:165 167;stroke-dashoffset:166;animation:YgNPKkQA_draw 2000ms linear 232ms forwards;}.YgNPKkQA_18{stroke-dasharray:165 167;stroke-dashoffset:166;animation:YgNPKkQA_draw 2000ms linear 246ms forwards;}.YgNPKkQA_19{stroke-dasharray:165 167;stroke-dashoffset:166;animation:YgNPKkQA_draw 2000ms linear 260ms forwards;}.YgNPKkQA_20{stroke-dasharray:165 167;stroke-dashoffset:166;animation:YgNPKkQA_draw 2000ms linear 273ms forwards;}.YgNPKkQA_21{stroke-dasharray:165 167;stroke-dashoffset:166;animation:YgNPKkQA_draw 2000ms linear 287ms forwards;}.YgNPKkQA_22{stroke-dasharray:165 167;stroke-dashoffset:166;animation:YgNPKkQA_draw 2000ms linear 301ms forwards;}.YgNPKkQA_23{stroke-dasharray:165 167;stroke-dashoffset:166;animation:YgNPKkQA_draw 2000ms linear 315ms forwards;}.YgNPKkQA_24{stroke-dasharray:4057 4059;stroke-dashoffset:4058;animation:YgNPKkQA_draw 2000ms linear 328ms forwards;}.YgNPKkQA_25{stroke-dasharray:458 460;stroke-dashoffset:459;animation:YgNPKkQA_draw 2000ms linear 342ms forwards;}.YgNPKkQA_26{stroke-dasharray:454 456;stroke-dashoffset:455;animation:YgNPKkQA_draw 2000ms linear 356ms forwards;}.YgNPKkQA_27{stroke-dasharray:312 314;stroke-dashoffset:313;animation:YgNPKkQA_draw 2000ms linear 369ms forwards;}.YgNPKkQA_28{stroke-dasharray:337 339;stroke-dashoffset:338;animation:YgNPKkQA_draw 2000ms linear 383ms forwards;}.YgNPKkQA_29{stroke-dasharray:342 344;stroke-dashoffset:343;animation:YgNPKkQA_draw 2000ms linear 397ms forwards;}.YgNPKkQA_30{stroke-dasharray:306 308;stroke-dashoffset:307;animation:YgNPKkQA_draw 2000ms linear 410ms forwards;}.YgNPKkQA_31{stroke-dasharray:329 331;stroke-dashoffset:330;animation:YgNPKkQA_draw 2000ms linear 424ms forwards;}.YgNPKkQA_32{stroke-dasharray:196 198;stroke-dashoffset:197;animation:YgNPKkQA_draw 2000ms linear 438ms forwards;}.YgNPKkQA_33{stroke-dasharray:232 234;stroke-dashoffset:233;animation:YgNPKkQA_draw 2000ms linear 452ms forwards;}.YgNPKkQA_34{stroke-dasharray:337 339;stroke-dashoffset:338;animation:YgNPKkQA_draw 2000ms linear 465ms forwards;}.YgNPKkQA_35{stroke-dasharray:842 844;stroke-dashoffset:843;animation:YgNPKkQA_draw 2000ms linear 479ms forwards;}.YgNPKkQA_36{stroke-dasharray:207 209;stroke-dashoffset:208;animation:YgNPKkQA_draw 2000ms linear 493ms forwards;}.YgNPKkQA_37{stroke-dasharray:763 765;stroke-dashoffset:764;animation:YgNPKkQA_draw 2000ms linear 506ms forwards;}.YgNPKkQA_38{stroke-dasharray:254 256;stroke-dashoffset:255;animation:YgNPKkQA_draw 2000ms linear 520ms forwards;}.YgNPKkQA_39{stroke-dasharray:231 233;stroke-dashoffset:232;animation:YgNPKkQA_draw 2000ms linear 534ms forwards;}.YgNPKkQA_40{stroke-dasharray:250 252;stroke-dashoffset:251;animation:YgNPKkQA_draw 2000ms linear 547ms forwards;}.YgNPKkQA_41{stroke-dasharray:252 254;stroke-dashoffset:253;animation:YgNPKkQA_draw 2000ms linear 561ms forwards;}.YgNPKkQA_42{stroke-dasharray:322 324;stroke-dashoffset:323;animation:YgNPKkQA_draw 2000ms linear 575ms forwards;}.YgNPKkQA_43{stroke-dasharray:583 585;stroke-dashoffset:584;animation:YgNPKkQA_draw 2000ms linear 589ms forwards;}.YgNPKkQA_44{stroke-dasharray:359 361;stroke-dashoffset:360;animation:YgNPKkQA_draw 2000ms linear 602ms forwards;}.YgNPKkQA_45{stroke-dasharray:265 267;stroke-dashoffset:266;animation:YgNPKkQA_draw 2000ms linear 616ms forwards;}.YgNPKkQA_46{stroke-dasharray:266 268;stroke-dashoffset:267;animation:YgNPKkQA_draw 2000ms linear 630ms forwards;}.YgNPKkQA_47{stroke-dasharray:606 608;stroke-dashoffset:607;animation:YgNPKkQA_draw 2000ms linear 643ms forwards;}.YgNPKkQA_48{stroke-dasharray:254 256;stroke-dashoffset:255;animation:YgNPKkQA_draw 2000ms linear 657ms forwards;}.YgNPKkQA_49{stroke-dasharray:149 151;stroke-dashoffset:150;animation:YgNPKkQA_draw 2000ms linear 671ms forwards;}.YgNPKkQA_50{stroke-dasharray:272 274;stroke-dashoffset:273;animation:YgNPKkQA_draw 2000ms linear 684ms forwards;}.YgNPKkQA_51{stroke-dasharray:579 581;stroke-dashoffset:580;animation:YgNPKkQA_draw 2000ms linear 698ms forwards;}.YgNPKkQA_52{stroke-dasharray:416 418;stroke-dashoffset:417;animation:YgNPKkQA_draw 2000ms linear 712ms forwards;}.YgNPKkQA_53{stroke-dasharray:537 539;stroke-dashoffset:538;animation:YgNPKkQA_draw 2000ms linear 726ms forwards;}.YgNPKkQA_54{stroke-dasharray:722 724;stroke-dashoffset:723;animation:YgNPKkQA_draw 2000ms linear 739ms forwards;}.YgNPKkQA_55{stroke-dasharray:593 595;stroke-dashoffset:594;animation:YgNPKkQA_draw 2000ms linear 753ms forwards;}.YgNPKkQA_56{stroke-dasharray:2302 2304;stroke-dashoffset:2303;animation:YgNPKkQA_draw 2000ms linear 767ms forwards;}.YgNPKkQA_57{stroke-dasharray:1932 1934;stroke-dashoffset:1933;animation:YgNPKkQA_draw 2000ms linear 780ms forwards;}.YgNPKkQA_58{stroke-dasharray:1932 1934;stroke-dashoffset:1933;animation:YgNPKkQA_draw 2000ms linear 794ms forwards;}.YgNPKkQA_59{stroke-dasharray:296 298;stroke-dashoffset:297;animation:YgNPKkQA_draw 2000ms linear 808ms forwards;}.YgNPKkQA_60{stroke-dasharray:64 66;stroke-dashoffset:65;animation:YgNPKkQA_draw 2000ms linear 821ms forwards;}.YgNPKkQA_61{stroke-dasharray:64 66;stroke-dashoffset:65;animation:YgNPKkQA_draw 2000ms linear 835ms forwards;}.YgNPKkQA_62{stroke-dasharray:71 73;stroke-dashoffset:72;animation:YgNPKkQA_draw 2000ms linear 849ms forwards;}.YgNPKkQA_63{stroke-dasharray:71 73;stroke-dashoffset:72;animation:YgNPKkQA_draw 2000ms linear 863ms forwards;}.YgNPKkQA_64{stroke-dasharray:55 57;stroke-dashoffset:56;animation:YgNPKkQA_draw 2000ms linear 876ms forwards;}.YgNPKkQA_65{stroke-dasharray:55 57;stroke-dashoffset:56;animation:YgNPKkQA_draw 2000ms linear 890ms forwards;}.YgNPKkQA_66{stroke-dasharray:55 57;stroke-dashoffset:56;animation:YgNPKkQA_draw 2000ms linear 904ms forwards;}.YgNPKkQA_67{stroke-dasharray:67 69;stroke-dashoffset:68;animation:YgNPKkQA_draw 2000ms linear 917ms forwards;}.YgNPKkQA_68{stroke-dasharray:51 53;stroke-dashoffset:52;animation:YgNPKkQA_draw 2000ms linear 931ms forwards;}.YgNPKkQA_69{stroke-dasharray:51 53;stroke-dashoffset:52;animation:YgNPKkQA_draw 2000ms linear 945ms forwards;}.YgNPKkQA_70{stroke-dasharray:51 53;stroke-dashoffset:52;animation:YgNPKkQA_draw 2000ms linear 958ms forwards;}.YgNPKkQA_71{stroke-dasharray:67 69;stroke-dashoffset:68;animation:YgNPKkQA_draw 2000ms linear 972ms forwards;}.YgNPKkQA_72{stroke-dasharray:36 38;stroke-dashoffset:37;animation:YgNPKkQA_draw 2000ms linear 986ms forwards;}.YgNPKkQA_73{stroke-dasharray:74 76;stroke-dashoffset:75;animation:YgNPKkQA_draw 2000ms linear 1000ms forwards;}@keyframes YgNPKkQA_draw{100%{stroke-dashoffset:0;}}@keyframes YgNPKkQA_fade{0%{stroke-opacity:1;}94.44444444444444%{stroke-opacity:1;}100%{stroke-opacity:0;}}</style>
</svg>
